<mxfile host="Electron" agent="Mozilla/5.0 (Windows NT 10.0; Win64; x64) AppleWebKit/537.36 (KHTML, like Gecko) draw.io/26.0.9 Chrome/128.0.6613.186 Electron/32.2.5 Safari/537.36" version="26.0.9">
  <diagram name="Rental Issue" id="MufmneWePPvBi6zRY3wf">
    <mxGraphModel dx="2127" dy="1010" grid="1" gridSize="10" guides="1" tooltips="1" connect="1" arrows="1" fold="1" page="1" pageScale="1" pageWidth="850" pageHeight="1100" math="0" shadow="0" adaptiveColors="auto">
      <root>
        <mxCell id="Z8SG96sgnLIpRYUDm_wM-0" />
        <mxCell id="Z8SG96sgnLIpRYUDm_wM-1" parent="Z8SG96sgnLIpRYUDm_wM-0" />
        <mxCell id="Z8SG96sgnLIpRYUDm_wM-3" value="&lt;font face=&quot;Garamond&quot;&gt;AWS Data Center&lt;/font&gt;" style="points=[[0,0],[0.25,0],[0.5,0],[0.75,0],[1,0],[1,0.25],[1,0.5],[1,0.75],[1,1],[0.75,1],[0.5,1],[0.25,1],[0,1],[0,0.75],[0,0.5],[0,0.25]];outlineConnect=0;gradientColor=none;html=1;whiteSpace=wrap;fontSize=12;fontStyle=0;container=0;pointerEvents=0;collapsible=0;recursiveResize=0;shape=mxgraph.aws4.group;grIcon=mxgraph.aws4.group_corporate_data_center;strokeColor=#7D8998;fillColor=none;verticalAlign=top;align=left;spacingLeft=30;fontColor=#5A6C86;dashed=0;" parent="Z8SG96sgnLIpRYUDm_wM-1" vertex="1">
          <mxGeometry x="371" y="80" width="1229" height="1500" as="geometry" />
        </mxCell>
        <mxCell id="Z8SG96sgnLIpRYUDm_wM-4" value="&lt;font face=&quot;Garamond&quot;&gt;City of Vancouver (COV) Account&lt;/font&gt;" style="points=[[0,0],[0.25,0],[0.5,0],[0.75,0],[1,0],[1,0.25],[1,0.5],[1,0.75],[1,1],[0.75,1],[0.5,1],[0.25,1],[0,1],[0,0.75],[0,0.5],[0,0.25]];outlineConnect=0;gradientColor=none;html=1;whiteSpace=wrap;fontSize=12;fontStyle=0;container=1;pointerEvents=0;collapsible=0;recursiveResize=0;shape=mxgraph.aws4.group;grIcon=mxgraph.aws4.group_account;strokeColor=#CD2264;fillColor=none;verticalAlign=top;align=left;spacingLeft=30;fontColor=#CD2264;dashed=0;" parent="Z8SG96sgnLIpRYUDm_wM-1" vertex="1">
          <mxGeometry x="411" y="120" width="2109" height="1502" as="geometry" />
        </mxCell>
        <mxCell id="Z8SG96sgnLIpRYUDm_wM-5" value="&lt;font face=&quot;Garamond&quot;&gt;Region = N. Virginia&lt;/font&gt;" style="points=[[0,0],[0.25,0],[0.5,0],[0.75,0],[1,0],[1,0.25],[1,0.5],[1,0.75],[1,1],[0.75,1],[0.5,1],[0.25,1],[0,1],[0,0.75],[0,0.5],[0,0.25]];outlineConnect=0;gradientColor=none;html=1;whiteSpace=wrap;fontSize=12;fontStyle=0;container=1;pointerEvents=0;collapsible=0;recursiveResize=0;shape=mxgraph.aws4.group;grIcon=mxgraph.aws4.group_region;strokeColor=#00A4A6;fillColor=none;verticalAlign=top;align=left;spacingLeft=30;fontColor=#147EBA;dashed=1;" parent="Z8SG96sgnLIpRYUDm_wM-4" vertex="1">
          <mxGeometry x="41" y="39" width="2029" height="1463" as="geometry" />
        </mxCell>
        <mxCell id="Z8SG96sgnLIpRYUDm_wM-6" value="&lt;font face=&quot;Garamond&quot;&gt;Availability Zone&amp;nbsp; = 1-a&lt;/font&gt;" style="fillColor=none;strokeColor=#147EBA;dashed=1;verticalAlign=top;fontStyle=0;fontColor=#147EBA;whiteSpace=wrap;html=1;" parent="Z8SG96sgnLIpRYUDm_wM-5" vertex="1">
          <mxGeometry x="34" y="31" width="1016" height="1349" as="geometry" />
        </mxCell>
        <mxCell id="Z8SG96sgnLIpRYUDm_wM-33" value="&lt;font face=&quot;Garamond&quot;&gt;&lt;br&gt;&lt;span style=&quot;color: rgb(90, 108, 134); font-size: 12px; font-style: normal; font-variant-ligatures: normal; font-variant-caps: normal; font-weight: 400; letter-spacing: normal; orphans: 2; text-align: center; text-indent: 0px; text-transform: none; widows: 2; word-spacing: 0px; -webkit-text-stroke-width: 0px; white-space: normal; background-color: rgb(251, 251, 251); text-decoration-thickness: initial; text-decoration-style: initial; text-decoration-color: initial; float: none; display: inline !important;&quot;&gt;Data Analysis Platform (COV Office)&lt;/span&gt;&lt;br&gt;&lt;/font&gt;" style="fillColor=none;strokeColor=#5A6C86;dashed=1;verticalAlign=top;fontStyle=0;fontColor=#5A6C86;whiteSpace=wrap;html=1;" parent="Z8SG96sgnLIpRYUDm_wM-5" vertex="1">
          <mxGeometry x="-52" y="56" width="1150" height="1344" as="geometry" />
        </mxCell>
        <mxCell id="Z8SG96sgnLIpRYUDm_wM-212" value="1" style="text;html=1;align=center;verticalAlign=middle;resizable=0;points=[];autosize=1;strokeColor=none;fillColor=none;" parent="Z8SG96sgnLIpRYUDm_wM-5" vertex="1">
          <mxGeometry x="2097" y="690.77" width="30" height="30" as="geometry" />
        </mxCell>
        <mxCell id="zjTeK_ae6c7EuptJbxoT-18" value="" style="group" parent="Z8SG96sgnLIpRYUDm_wM-5" vertex="1" connectable="0">
          <mxGeometry x="905" y="111" width="125" height="322.5" as="geometry" />
        </mxCell>
        <mxCell id="Z8SG96sgnLIpRYUDm_wM-67" value="&lt;font face=&quot;Garamond&quot;&gt;cov -cur-suj&lt;/font&gt;" style="sketch=0;outlineConnect=0;fontColor=#232F3E;gradientColor=none;fillColor=#7AA116;strokeColor=none;dashed=0;verticalLabelPosition=bottom;verticalAlign=top;align=center;html=1;fontSize=12;fontStyle=0;aspect=fixed;pointerEvents=1;shape=mxgraph.aws4.bucket_with_objects;" parent="zjTeK_ae6c7EuptJbxoT-18" vertex="1">
          <mxGeometry x="22" width="50" height="52" as="geometry" />
        </mxCell>
        <mxCell id="Z8SG96sgnLIpRYUDm_wM-74" value="&lt;font face=&quot;Garamond&quot;&gt;Amazon S3&lt;/font&gt;" style="sketch=0;outlineConnect=0;fontColor=#232F3E;gradientColor=none;strokeColor=#ffffff;fillColor=#232F3E;dashed=0;verticalLabelPosition=middle;verticalAlign=bottom;align=center;html=1;whiteSpace=wrap;fontSize=10;fontStyle=1;spacing=3;shape=mxgraph.aws4.productIcon;prIcon=mxgraph.aws4.s3;" parent="zjTeK_ae6c7EuptJbxoT-18" vertex="1">
          <mxGeometry x="22" y="220" width="60" height="80" as="geometry" />
        </mxCell>
        <mxCell id="zjTeK_ae6c7EuptJbxoT-13" value="" style="group" parent="zjTeK_ae6c7EuptJbxoT-18" vertex="1" connectable="0">
          <mxGeometry y="83" width="125" height="119" as="geometry" />
        </mxCell>
        <mxCell id="Z8SG96sgnLIpRYUDm_wM-70" value="" style="shape=image;html=1;verticalAlign=top;verticalLabelPosition=bottom;labelBackgroundColor=#ffffff;imageAspect=0;aspect=fixed;image=https://cdn1.iconfinder.com/data/icons/systemui/21/hierarchy-128.png" parent="zjTeK_ae6c7EuptJbxoT-13" vertex="1">
          <mxGeometry x="2.5" width="89" height="89" as="geometry" />
        </mxCell>
        <mxCell id="Z8SG96sgnLIpRYUDm_wM-71" value="&lt;span style=&quot;background-color: rgb(255, 255, 255);&quot;&gt;&lt;font face=&quot;Garamond&quot; style=&quot;font-size: 10px;&quot;&gt;/rental-issue/metrics/User&lt;/font&gt;&lt;/span&gt;&lt;div&gt;&lt;span style=&quot;background-color: rgb(255, 255, 255);&quot;&gt;&lt;span style=&quot;font-family: Garamond; font-size: 10px;&quot;&gt;/rental-issue/metrics/System&lt;/span&gt;&lt;font face=&quot;Garamond&quot; style=&quot;font-size: 10px;&quot;&gt;&lt;br&gt;&lt;/font&gt;&lt;/span&gt;&lt;/div&gt;" style="text;html=1;align=center;verticalAlign=middle;whiteSpace=wrap;rounded=0;" parent="zjTeK_ae6c7EuptJbxoT-13" vertex="1">
          <mxGeometry y="89" width="125" height="30" as="geometry" />
        </mxCell>
        <mxCell id="Z8SG96sgnLIpRYUDm_wM-148" value="Data Summarization Cost Analysis" style="shape=table;childLayout=tableLayout;startSize=42;collapsible=0;recursiveResize=0;expand=0;fontSize=16;" parent="Z8SG96sgnLIpRYUDm_wM-5" vertex="1">
          <mxGeometry x="1208" y="501" width="800" height="161" as="geometry" />
        </mxCell>
        <mxCell id="Z8SG96sgnLIpRYUDm_wM-149" value="Rental-Issue" style="shape=tableRow;horizontal=0;swimlaneHead=0;swimlaneBody=0;top=0;left=0;strokeColor=inherit;bottom=0;right=0;dropTarget=0;fontStyle=0;fillColor=none;points=[[0,0.5],[1,0.5]];portConstraint=eastwest;startSize=40;collapsible=0;recursiveResize=0;expand=0;fontSize=16;" parent="Z8SG96sgnLIpRYUDm_wM-148" vertex="1">
          <mxGeometry y="42" width="800" height="119" as="geometry" />
        </mxCell>
        <mxCell id="Z8SG96sgnLIpRYUDm_wM-150" value="Glue interactive sessions (#)" style="swimlane;swimlaneHead=0;swimlaneBody=0;fontStyle=0;strokeColor=inherit;connectable=0;fillColor=none;startSize=18;collapsible=0;recursiveResize=0;expand=0;fontSize=12;" parent="Z8SG96sgnLIpRYUDm_wM-149" vertex="1">
          <mxGeometry x="40" width="190" height="119" as="geometry">
            <mxRectangle width="190" height="119" as="alternateBounds" />
          </mxGeometry>
        </mxCell>
        <mxCell id="oAeZyyr4GvxvHSwC-ogR-0" value="Glue interactive sessions Nodes" style="swimlane;swimlaneHead=0;swimlaneBody=0;fontStyle=0;strokeColor=inherit;connectable=0;fillColor=none;startSize=18;collapsible=0;recursiveResize=0;expand=0;fontSize=12;" parent="Z8SG96sgnLIpRYUDm_wM-149" vertex="1">
          <mxGeometry x="230" width="210" height="119" as="geometry">
            <mxRectangle width="210" height="119" as="alternateBounds" />
          </mxGeometry>
        </mxCell>
        <mxCell id="Z8SG96sgnLIpRYUDm_wM-151" value="Glue Job Nodes" style="swimlane;swimlaneHead=0;swimlaneBody=0;fontStyle=0;strokeColor=inherit;connectable=0;fillColor=none;startSize=18;collapsible=0;recursiveResize=0;expand=0;fontSize=12;" parent="Z8SG96sgnLIpRYUDm_wM-149" vertex="1">
          <mxGeometry x="440" width="160" height="119" as="geometry">
            <mxRectangle width="160" height="119" as="alternateBounds" />
          </mxGeometry>
        </mxCell>
        <mxCell id="Z8SG96sgnLIpRYUDm_wM-152" value="Glue Job Duration" style="swimlane;swimlaneHead=0;swimlaneBody=0;fontStyle=0;strokeColor=inherit;connectable=0;fillColor=none;startSize=18;collapsible=0;recursiveResize=0;expand=0;fontSize=12;" parent="Z8SG96sgnLIpRYUDm_wM-149" vertex="1">
          <mxGeometry x="600" width="200" height="119" as="geometry">
            <mxRectangle width="200" height="119" as="alternateBounds" />
          </mxGeometry>
        </mxCell>
        <mxCell id="lHhe_CSioxbiiWHbaxMm-1" value="&lt;font face=&quot;Garamond&quot;&gt;&lt;span style=&quot;color: rgb(15, 20, 26); font-size: 14px; text-align: start; background-color: rgb(240, 251, 255);&quot;&gt;1&lt;/span&gt;&lt;span style=&quot;color: rgb(15, 20, 26); font-size: 14px; text-align: start; background-color: rgb(240, 251, 255);&quot;&gt;&amp;nbsp;&lt;/span&gt;&lt;span style=&quot;color: rgb(15, 20, 26); font-size: 14px; text-align: start; background-color: rgb(240, 251, 255);&quot;&gt;m&lt;/span&gt;&lt;span style=&quot;color: rgb(15, 20, 26); font-size: 14px; text-align: start; background-color: rgb(240, 251, 255);&quot;&gt;&amp;nbsp;&lt;/span&gt;&lt;span style=&quot;color: rgb(15, 20, 26); font-size: 14px; text-align: start; background-color: rgb(240, 251, 255);&quot;&gt;54&lt;/span&gt;&lt;span style=&quot;color: rgb(15, 20, 26); font-size: 14px; text-align: start; background-color: rgb(240, 251, 255);&quot;&gt;&amp;nbsp;&lt;/span&gt;&lt;span style=&quot;color: rgb(15, 20, 26); font-size: 14px; text-align: start; background-color: rgb(240, 251, 255);&quot;&gt;s +&amp;nbsp;&lt;/span&gt;&lt;/font&gt;&lt;font face=&quot;Garamond&quot; color=&quot;#0f141a&quot;&gt;&lt;span style=&quot;font-size: 14px;&quot;&gt;2 m 9 s&lt;/span&gt;&lt;/font&gt;" style="text;html=1;align=center;verticalAlign=middle;resizable=0;points=[];autosize=1;strokeColor=none;fillColor=none;" parent="Z8SG96sgnLIpRYUDm_wM-152" vertex="1">
          <mxGeometry x="30" y="37" width="130" height="30" as="geometry" />
        </mxCell>
        <mxCell id="7ZNYOA9tG7U9G9sYMNjv-0" value="Data Cleaning Cost Analysis" style="shape=table;childLayout=tableLayout;startSize=42;collapsible=0;recursiveResize=0;expand=0;fontSize=16;" parent="Z8SG96sgnLIpRYUDm_wM-5" vertex="1">
          <mxGeometry x="1209" y="321" width="640" height="161" as="geometry" />
        </mxCell>
        <mxCell id="7ZNYOA9tG7U9G9sYMNjv-1" value="Rental-Issue" style="shape=tableRow;horizontal=0;swimlaneHead=0;swimlaneBody=0;top=0;left=0;strokeColor=inherit;bottom=0;right=0;dropTarget=0;fontStyle=0;fillColor=none;points=[[0,0.5],[1,0.5]];portConstraint=eastwest;startSize=40;collapsible=0;recursiveResize=0;expand=0;fontSize=16;" parent="7ZNYOA9tG7U9G9sYMNjv-0" vertex="1">
          <mxGeometry y="42" width="640" height="119" as="geometry" />
        </mxCell>
        <mxCell id="7ZNYOA9tG7U9G9sYMNjv-2" value="DataBrew interactive sessions (#)" style="swimlane;swimlaneHead=0;swimlaneBody=0;fontStyle=0;strokeColor=inherit;connectable=0;fillColor=none;startSize=18;collapsible=0;recursiveResize=0;expand=0;fontSize=12;" parent="7ZNYOA9tG7U9G9sYMNjv-1" vertex="1">
          <mxGeometry x="40" width="190" height="119" as="geometry">
            <mxRectangle width="190" height="119" as="alternateBounds" />
          </mxGeometry>
        </mxCell>
        <mxCell id="7ZNYOA9tG7U9G9sYMNjv-3" value="DataBrew Job Nodes" style="swimlane;swimlaneHead=0;swimlaneBody=0;fontStyle=0;strokeColor=inherit;connectable=0;fillColor=none;startSize=18;collapsible=0;recursiveResize=0;expand=0;fontSize=12;" parent="7ZNYOA9tG7U9G9sYMNjv-1" vertex="1">
          <mxGeometry x="230" width="210" height="119" as="geometry">
            <mxRectangle width="210" height="119" as="alternateBounds" />
          </mxGeometry>
        </mxCell>
        <mxCell id="zjTeK_ae6c7EuptJbxoT-25" value="&lt;span style=&quot;color: rgb(84, 91, 100); font-size: 14px; text-align: left; text-wrap: wrap; background-color: rgb(255, 255, 255);&quot;&gt;&lt;font face=&quot;Garamond&quot;&gt;5+5&lt;/font&gt;&lt;/span&gt;" style="text;html=1;align=center;verticalAlign=middle;resizable=0;points=[];autosize=1;strokeColor=none;fillColor=none;" parent="7ZNYOA9tG7U9G9sYMNjv-3" vertex="1">
          <mxGeometry x="79" y="39" width="50" height="30" as="geometry" />
        </mxCell>
        <mxCell id="7ZNYOA9tG7U9G9sYMNjv-4" value="DataBrew Job Duration" style="swimlane;swimlaneHead=0;swimlaneBody=0;fontStyle=0;strokeColor=inherit;connectable=0;fillColor=none;startSize=18;collapsible=0;recursiveResize=0;expand=0;fontSize=12;" parent="7ZNYOA9tG7U9G9sYMNjv-1" vertex="1">
          <mxGeometry x="440" width="200" height="119" as="geometry">
            <mxRectangle width="200" height="119" as="alternateBounds" />
          </mxGeometry>
        </mxCell>
        <mxCell id="zjTeK_ae6c7EuptJbxoT-27" value="&lt;font face=&quot;Garamond&quot;&gt;&lt;span style=&quot;color: rgb(22, 25, 31); font-size: 14px; text-align: left; text-wrap: wrap; background-color: rgb(255, 255, 255);&quot;&gt;1 minute, 44 seconds&amp;nbsp;&lt;/span&gt;&lt;/font&gt;&lt;span style=&quot;background-color: light-dark(rgb(255, 255, 255), rgb(18, 18, 18)); color: light-dark(rgb(22, 25, 31), rgb(214, 216, 222)); font-size: 14px; text-align: left; text-wrap: wrap; font-family: Garamond;&quot;&gt;+&amp;nbsp;&lt;/span&gt;&lt;span style=&quot;background-color: light-dark(rgb(255, 255, 255), rgb(18, 18, 18)); color: light-dark(rgb(22, 25, 31), rgb(214, 216, 222)); font-size: 14px; text-align: left; text-wrap: wrap; font-family: Garamond;&quot;&gt;1 minute, 38 seconds&lt;/span&gt;" style="text;html=1;align=center;verticalAlign=middle;resizable=0;points=[];autosize=1;strokeColor=none;fillColor=none;" parent="7ZNYOA9tG7U9G9sYMNjv-4" vertex="1">
          <mxGeometry x="-35" y="54" width="270" height="30" as="geometry" />
        </mxCell>
        <mxCell id="YHfScxwqXyVmhFl68HAi-2" value="&lt;font face=&quot;Garamond&quot;&gt;Amazon Athena&lt;/font&gt;" style="sketch=0;outlineConnect=0;fontColor=#232F3E;gradientColor=none;strokeColor=#ffffff;fillColor=#232F3E;dashed=0;verticalLabelPosition=middle;verticalAlign=bottom;align=center;html=1;whiteSpace=wrap;fontSize=10;fontStyle=1;spacing=3;shape=mxgraph.aws4.productIcon;prIcon=mxgraph.aws4.athena;" parent="Z8SG96sgnLIpRYUDm_wM-5" vertex="1">
          <mxGeometry x="758" y="621" width="64.73" height="89" as="geometry" />
        </mxCell>
        <mxCell id="Z8SG96sgnLIpRYUDm_wM-77" value="&lt;font face=&quot;Garamond&quot;&gt;cov-crw-suj&lt;/font&gt;" style="sketch=0;outlineConnect=0;fontColor=#232F3E;gradientColor=none;fillColor=#8C4FFF;strokeColor=none;dashed=0;verticalLabelPosition=bottom;verticalAlign=top;align=center;html=1;fontSize=12;fontStyle=0;aspect=fixed;pointerEvents=1;shape=mxgraph.aws4.glue_crawlers;" parent="Z8SG96sgnLIpRYUDm_wM-5" vertex="1">
          <mxGeometry x="603" y="206.5" width="45" height="45" as="geometry" />
        </mxCell>
        <mxCell id="zjTeK_ae6c7EuptJbxoT-10" value="" style="group" parent="Z8SG96sgnLIpRYUDm_wM-5" vertex="1" connectable="0">
          <mxGeometry x="268" y="111" width="61.98000000000002" height="150" as="geometry" />
        </mxCell>
        <mxCell id="Z8SG96sgnLIpRYUDm_wM-48" value="&lt;span style=&quot;font-family: Garamond;&quot;&gt;rental-issue-trf&lt;/span&gt;" style="aspect=fixed;sketch=0;html=1;dashed=0;whitespace=wrap;verticalLabelPosition=bottom;verticalAlign=top;fillColor=#2875E2;strokeColor=#ffffff;points=[[0.005,0.63,0],[0.1,0.2,0],[0.9,0.2,0],[0.5,0,0],[0.995,0.63,0],[0.72,0.99,0],[0.5,1,0],[0.28,0.99,0]];shape=mxgraph.kubernetes.icon2;kubernetesLabel=1;prIcon=job" parent="zjTeK_ae6c7EuptJbxoT-10" vertex="1">
          <mxGeometry width="61.98" height="59.5" as="geometry" />
        </mxCell>
        <mxCell id="Z8SG96sgnLIpRYUDm_wM-49" value="&lt;font face=&quot;Garamond&quot;&gt;Glue Databrew&lt;/font&gt;" style="sketch=0;outlineConnect=0;fontColor=#232F3E;gradientColor=none;fillColor=#8C4FFF;strokeColor=none;dashed=0;verticalLabelPosition=bottom;verticalAlign=top;align=center;html=1;fontSize=12;fontStyle=0;aspect=fixed;pointerEvents=1;shape=mxgraph.aws4.glue_databrew;" parent="zjTeK_ae6c7EuptJbxoT-10" vertex="1">
          <mxGeometry y="90" width="60" height="60" as="geometry" />
        </mxCell>
        <mxCell id="zjTeK_ae6c7EuptJbxoT-12" value="" style="group" parent="Z8SG96sgnLIpRYUDm_wM-5" vertex="1" connectable="0">
          <mxGeometry x="542.5" y="322" width="166" height="250" as="geometry" />
        </mxCell>
        <mxCell id="Z8SG96sgnLIpRYUDm_wM-52" value="&lt;font style=&quot;font-size: 10px;&quot; face=&quot;Garamond&quot;&gt;AWS Glue&lt;/font&gt;" style="sketch=0;outlineConnect=0;fontColor=#232F3E;gradientColor=none;strokeColor=#ffffff;fillColor=#232F3E;dashed=0;verticalLabelPosition=middle;verticalAlign=bottom;align=center;html=1;whiteSpace=wrap;fontSize=10;fontStyle=1;spacing=3;shape=mxgraph.aws4.productIcon;prIcon=mxgraph.aws4.glue;" parent="zjTeK_ae6c7EuptJbxoT-12" vertex="1">
          <mxGeometry x="58" y="170" width="58" height="80" as="geometry" />
        </mxCell>
        <mxCell id="Z8SG96sgnLIpRYUDm_wM-53" value="" style="strokeWidth=2;html=1;shape=mxgraph.flowchart.database;whiteSpace=wrap;" parent="zjTeK_ae6c7EuptJbxoT-12" vertex="1">
          <mxGeometry x="58" width="50" height="49" as="geometry" />
        </mxCell>
        <mxCell id="Z8SG96sgnLIpRYUDm_wM-54" value="&lt;font face=&quot;Garamond&quot;&gt;cov-data-catalog-suj&lt;/font&gt;" style="text;html=1;align=center;verticalAlign=middle;whiteSpace=wrap;rounded=0;" parent="zjTeK_ae6c7EuptJbxoT-12" vertex="1">
          <mxGeometry y="66.5" width="166" height="38" as="geometry" />
        </mxCell>
        <mxCell id="Z8SG96sgnLIpRYUDm_wM-55" value="&lt;font face=&quot;Garamond&quot;&gt;Rental-Issue&lt;/font&gt;" style="shape=table;startSize=30;container=1;collapsible=1;childLayout=tableLayout;fixedRows=1;rowLines=0;fontStyle=1;align=center;resizeLast=1;html=1;fontSize=8;" parent="zjTeK_ae6c7EuptJbxoT-12" vertex="1">
          <mxGeometry x="35" y="100" width="96" height="59" as="geometry" />
        </mxCell>
        <mxCell id="Z8SG96sgnLIpRYUDm_wM-56" value="" style="shape=tableRow;horizontal=0;startSize=0;swimlaneHead=0;swimlaneBody=0;fillColor=none;collapsible=0;dropTarget=0;points=[[0,0.5],[1,0.5]];portConstraint=eastwest;top=0;left=0;right=0;bottom=1;" parent="Z8SG96sgnLIpRYUDm_wM-55" vertex="1">
          <mxGeometry y="30" width="96" height="29" as="geometry" />
        </mxCell>
        <mxCell id="Z8SG96sgnLIpRYUDm_wM-57" value="&lt;font face=&quot;Garamond&quot;&gt;PK&lt;/font&gt;" style="shape=partialRectangle;connectable=0;fillColor=none;top=0;left=0;bottom=0;right=0;fontStyle=1;overflow=hidden;whiteSpace=wrap;html=1;fontSize=8;" parent="Z8SG96sgnLIpRYUDm_wM-56" vertex="1">
          <mxGeometry width="28" height="29" as="geometry">
            <mxRectangle width="28" height="29" as="alternateBounds" />
          </mxGeometry>
        </mxCell>
        <mxCell id="Z8SG96sgnLIpRYUDm_wM-58" value="" style="shape=partialRectangle;connectable=0;fillColor=none;top=0;left=0;bottom=0;right=0;align=left;spacingLeft=6;fontStyle=5;overflow=hidden;whiteSpace=wrap;html=1;fontSize=8;" parent="Z8SG96sgnLIpRYUDm_wM-56" vertex="1">
          <mxGeometry x="28" width="68" height="29" as="geometry">
            <mxRectangle width="68" height="29" as="alternateBounds" />
          </mxGeometry>
        </mxCell>
        <mxCell id="zjTeK_ae6c7EuptJbxoT-14" value="" style="group" parent="Z8SG96sgnLIpRYUDm_wM-5" vertex="1" connectable="0">
          <mxGeometry x="38" y="111" width="200" height="291" as="geometry" />
        </mxCell>
        <mxCell id="Z8SG96sgnLIpRYUDm_wM-34" value="&lt;font face=&quot;Garamond&quot;&gt;Amazon S3&lt;/font&gt;" style="sketch=0;outlineConnect=0;fontColor=#232F3E;gradientColor=none;strokeColor=#ffffff;fillColor=#232F3E;dashed=0;verticalLabelPosition=middle;verticalAlign=bottom;align=center;html=1;whiteSpace=wrap;fontSize=10;fontStyle=1;spacing=3;shape=mxgraph.aws4.productIcon;prIcon=mxgraph.aws4.s3;" parent="zjTeK_ae6c7EuptJbxoT-14" vertex="1">
          <mxGeometry x="35" y="211" width="60" height="80" as="geometry" />
        </mxCell>
        <mxCell id="Z8SG96sgnLIpRYUDm_wM-35" value="&lt;font face=&quot;Garamond&quot;&gt;cov-raw-suj&lt;/font&gt;" style="sketch=0;outlineConnect=0;fontColor=#232F3E;gradientColor=none;fillColor=#7AA116;strokeColor=none;dashed=0;verticalLabelPosition=bottom;verticalAlign=top;align=center;html=1;fontSize=12;fontStyle=0;aspect=fixed;pointerEvents=1;shape=mxgraph.aws4.bucket_with_objects;" parent="zjTeK_ae6c7EuptJbxoT-14" vertex="1">
          <mxGeometry x="45" width="50" height="52" as="geometry" />
        </mxCell>
        <mxCell id="zjTeK_ae6c7EuptJbxoT-9" value="" style="group" parent="zjTeK_ae6c7EuptJbxoT-14" vertex="1" connectable="0">
          <mxGeometry y="83" width="200" height="119" as="geometry" />
        </mxCell>
        <mxCell id="Z8SG96sgnLIpRYUDm_wM-36" value="" style="shape=image;html=1;verticalAlign=top;verticalLabelPosition=bottom;labelBackgroundColor=#ffffff;imageAspect=0;aspect=fixed;image=https://cdn1.iconfinder.com/data/icons/systemui/21/hierarchy-128.png" parent="zjTeK_ae6c7EuptJbxoT-9" vertex="1">
          <mxGeometry x="24.5" width="89" height="89" as="geometry" />
        </mxCell>
        <mxCell id="Z8SG96sgnLIpRYUDm_wM-39" value="&lt;span style=&quot;background-color: rgb(255, 255, 255);&quot;&gt;&lt;font face=&quot;Garamond&quot; style=&quot;font-size: 10px;&quot;&gt;/rental-issue/server=COVGVS-Suj&lt;/font&gt;&lt;/span&gt;" style="text;html=1;align=center;verticalAlign=middle;whiteSpace=wrap;rounded=0;" parent="zjTeK_ae6c7EuptJbxoT-9" vertex="1">
          <mxGeometry y="89" width="160" height="30" as="geometry" />
        </mxCell>
        <mxCell id="zjTeK_ae6c7EuptJbxoT-16" value="" style="group" parent="Z8SG96sgnLIpRYUDm_wM-5" vertex="1" connectable="0">
          <mxGeometry x="429" y="111" width="160" height="291" as="geometry" />
        </mxCell>
        <mxCell id="Z8SG96sgnLIpRYUDm_wM-42" value="&lt;font face=&quot;Garamond&quot;&gt;cov-trf-suj&lt;/font&gt;" style="sketch=0;outlineConnect=0;fontColor=#232F3E;gradientColor=none;fillColor=#7AA116;strokeColor=none;dashed=0;verticalLabelPosition=bottom;verticalAlign=top;align=center;html=1;fontSize=12;fontStyle=0;aspect=fixed;pointerEvents=1;shape=mxgraph.aws4.bucket_with_objects;" parent="zjTeK_ae6c7EuptJbxoT-16" vertex="1">
          <mxGeometry x="21.25" width="50" height="52" as="geometry" />
        </mxCell>
        <mxCell id="zjTeK_ae6c7EuptJbxoT-11" value="" style="group" parent="zjTeK_ae6c7EuptJbxoT-16" vertex="1" connectable="0">
          <mxGeometry y="77" width="160" height="120" as="geometry" />
        </mxCell>
        <mxCell id="Z8SG96sgnLIpRYUDm_wM-43" value="" style="shape=image;html=1;verticalAlign=top;verticalLabelPosition=bottom;labelBackgroundColor=#ffffff;imageAspect=0;aspect=fixed;image=https://cdn1.iconfinder.com/data/icons/systemui/21/hierarchy-128.png" parent="zjTeK_ae6c7EuptJbxoT-11" vertex="1">
          <mxGeometry x="1.75" y="-7" width="89" height="89" as="geometry" />
        </mxCell>
        <mxCell id="zjTeK_ae6c7EuptJbxoT-17" value="" style="group" parent="Z8SG96sgnLIpRYUDm_wM-5" vertex="1" connectable="0">
          <mxGeometry x="753" y="111" width="78" height="264.5" as="geometry" />
        </mxCell>
        <mxCell id="Z8SG96sgnLIpRYUDm_wM-69" value="&lt;font face=&quot;Garamond&quot;&gt;Total-Unit-Summarization&lt;/font&gt;" style="sketch=0;outlineConnect=0;fontColor=#232F3E;gradientColor=none;fillColor=#7AA116;strokeColor=none;dashed=0;verticalLabelPosition=bottom;verticalAlign=top;align=center;html=1;fontSize=12;fontStyle=0;aspect=fixed;pointerEvents=1;shape=mxgraph.aws4.iot_analytics_pipeline;" parent="zjTeK_ae6c7EuptJbxoT-17" vertex="1">
          <mxGeometry width="78" height="42" as="geometry" />
        </mxCell>
        <mxCell id="Z8SG96sgnLIpRYUDm_wM-75" value="&lt;font face=&quot;Garamond&quot;&gt;Total-Outstanding-Summarization&lt;/font&gt;" style="sketch=0;outlineConnect=0;fontColor=#232F3E;gradientColor=none;fillColor=#7AA116;strokeColor=none;dashed=0;verticalLabelPosition=bottom;verticalAlign=top;align=center;html=1;fontSize=12;fontStyle=0;aspect=fixed;pointerEvents=1;shape=mxgraph.aws4.iot_analytics_pipeline;" parent="zjTeK_ae6c7EuptJbxoT-17" vertex="1">
          <mxGeometry y="95.5" width="78" height="42" as="geometry" />
        </mxCell>
        <mxCell id="YHfScxwqXyVmhFl68HAi-4" value="&lt;font face=&quot;Garamond&quot;&gt;Monitor Storage Cost&lt;/font&gt;" style="image;aspect=fixed;html=1;points=[];align=center;fontSize=12;image=img/lib/azure2/other/Azure_Monitor_Dashboard.svg;" parent="Z8SG96sgnLIpRYUDm_wM-5" vertex="1">
          <mxGeometry x="72.01" y="741" width="63.48" height="59" as="geometry" />
        </mxCell>
        <mxCell id="YHfScxwqXyVmhFl68HAi-5" value="Amazon CloudWatch" style="sketch=0;outlineConnect=0;fontColor=#232F3E;gradientColor=none;strokeColor=#ffffff;fillColor=#232F3E;dashed=0;verticalLabelPosition=middle;verticalAlign=bottom;align=center;html=1;whiteSpace=wrap;fontSize=10;fontStyle=1;spacing=3;shape=mxgraph.aws4.productIcon;prIcon=mxgraph.aws4.cloudwatch;" parent="Z8SG96sgnLIpRYUDm_wM-5" vertex="1">
          <mxGeometry x="135.48999999999992" y="1013" width="80" height="110" as="geometry" />
        </mxCell>
        <mxCell id="YHfScxwqXyVmhFl68HAi-6" value="&lt;font face=&quot;Garamond&quot;&gt;Unused Storage Threshold&lt;/font&gt;" style="sketch=0;outlineConnect=0;fontColor=#232F3E;gradientColor=none;fillColor=#E7157B;strokeColor=none;dashed=0;verticalLabelPosition=bottom;verticalAlign=top;align=center;html=1;fontSize=12;fontStyle=0;aspect=fixed;pointerEvents=1;shape=mxgraph.aws4.alarm;" parent="Z8SG96sgnLIpRYUDm_wM-5" vertex="1">
          <mxGeometry x="209" y="741" width="59" height="59" as="geometry" />
        </mxCell>
        <mxCell id="YHfScxwqXyVmhFl68HAi-9" value="&lt;font face=&quot;Garamond&quot;&gt;StorageCost&lt;/font&gt;" style="shape=image;html=1;verticalAlign=top;verticalLabelPosition=bottom;labelBackgroundColor=#ffffff;imageAspect=0;aspect=fixed;image=https://cdn4.iconfinder.com/data/icons/for-your-interface-free-samples/128/Speedometer-128.png" parent="Z8SG96sgnLIpRYUDm_wM-5" vertex="1">
          <mxGeometry x="68" y="651" width="49" height="49" as="geometry" />
        </mxCell>
        <mxCell id="YHfScxwqXyVmhFl68HAi-14" value="&lt;font face=&quot;Garamond&quot;&gt;StorageCost&lt;/font&gt;" style="shape=image;html=1;verticalAlign=top;verticalLabelPosition=bottom;labelBackgroundColor=#ffffff;imageAspect=0;aspect=fixed;image=https://cdn4.iconfinder.com/data/icons/for-your-interface-free-samples/128/Speedometer-128.png" parent="Z8SG96sgnLIpRYUDm_wM-5" vertex="1">
          <mxGeometry x="468" y="651" width="49" height="49" as="geometry" />
        </mxCell>
        <mxCell id="YHfScxwqXyVmhFl68HAi-15" value="&lt;font face=&quot;Garamond&quot;&gt;StorageCost&lt;/font&gt;" style="shape=image;html=1;verticalAlign=top;verticalLabelPosition=bottom;labelBackgroundColor=#ffffff;imageAspect=0;aspect=fixed;image=https://cdn4.iconfinder.com/data/icons/for-your-interface-free-samples/128/Speedometer-128.png" parent="Z8SG96sgnLIpRYUDm_wM-5" vertex="1">
          <mxGeometry x="938" y="651" width="49" height="49" as="geometry" />
        </mxCell>
        <mxCell id="YHfScxwqXyVmhFl68HAi-16" value="&lt;font face=&quot;Garamond&quot;&gt;Replication A&lt;/font&gt;" style="sketch=0;outlineConnect=0;fontColor=#232F3E;gradientColor=none;fillColor=#7AA116;strokeColor=none;dashed=0;verticalLabelPosition=bottom;verticalAlign=top;align=center;html=1;fontSize=12;fontStyle=0;aspect=fixed;pointerEvents=1;shape=mxgraph.aws4.replication;" parent="Z8SG96sgnLIpRYUDm_wM-5" vertex="1">
          <mxGeometry x="78" y="572" width="52.14" height="53.5" as="geometry" />
        </mxCell>
        <mxCell id="YHfScxwqXyVmhFl68HAi-19" value="&lt;font face=&quot;Garamond&quot;&gt;Replication A&lt;/font&gt;" style="sketch=0;outlineConnect=0;fontColor=#232F3E;gradientColor=none;fillColor=#7AA116;strokeColor=none;dashed=0;verticalLabelPosition=bottom;verticalAlign=top;align=center;html=1;fontSize=12;fontStyle=0;aspect=fixed;pointerEvents=1;shape=mxgraph.aws4.replication;" parent="Z8SG96sgnLIpRYUDm_wM-5" vertex="1">
          <mxGeometry x="458" y="572" width="52.14" height="53.5" as="geometry" />
        </mxCell>
        <mxCell id="YHfScxwqXyVmhFl68HAi-20" value="&lt;font face=&quot;Garamond&quot;&gt;Replication A&lt;/font&gt;" style="sketch=0;outlineConnect=0;fontColor=#232F3E;gradientColor=none;fillColor=#7AA116;strokeColor=none;dashed=0;verticalLabelPosition=bottom;verticalAlign=top;align=center;html=1;fontSize=12;fontStyle=0;aspect=fixed;pointerEvents=1;shape=mxgraph.aws4.replication;" parent="Z8SG96sgnLIpRYUDm_wM-5" vertex="1">
          <mxGeometry x="928" y="572" width="52.14" height="53.5" as="geometry" />
        </mxCell>
        <mxCell id="YHfScxwqXyVmhFl68HAi-22" value="&lt;font face=&quot;Garamond&quot;&gt;Track Activity&lt;/font&gt;" style="image;aspect=fixed;html=1;points=[];align=center;fontSize=12;image=img/lib/azure2/other/Azure_Monitor_Dashboard.svg;" parent="Z8SG96sgnLIpRYUDm_wM-5" vertex="1">
          <mxGeometry x="72.01" y="825.73" width="63.48" height="59" as="geometry" />
        </mxCell>
        <mxCell id="YHfScxwqXyVmhFl68HAi-23" value="&lt;font face=&quot;Garamond&quot;&gt;Data Event Count&lt;/font&gt;" style="sketch=0;outlineConnect=0;fontColor=#232F3E;gradientColor=none;fillColor=#E7157B;strokeColor=none;dashed=0;verticalLabelPosition=bottom;verticalAlign=top;align=center;html=1;fontSize=12;fontStyle=0;aspect=fixed;pointerEvents=1;shape=mxgraph.aws4.alarm;" parent="Z8SG96sgnLIpRYUDm_wM-5" vertex="1">
          <mxGeometry x="209" y="825.73" width="59" height="59" as="geometry" />
        </mxCell>
        <mxCell id="YHfScxwqXyVmhFl68HAi-26" value="&lt;font face=&quot;Garamond&quot;&gt;Ensure Data Security&lt;/font&gt;" style="image;aspect=fixed;html=1;points=[];align=center;fontSize=12;image=img/lib/azure2/other/Azure_Monitor_Dashboard.svg;" parent="Z8SG96sgnLIpRYUDm_wM-5" vertex="1">
          <mxGeometry x="72.01" y="925.73" width="63.48" height="59" as="geometry" />
        </mxCell>
        <mxCell id="YHfScxwqXyVmhFl68HAi-27" value="&lt;font face=&quot;Garamond&quot;&gt;Bucket Encryption Status&lt;/font&gt;" style="sketch=0;outlineConnect=0;fontColor=#232F3E;gradientColor=none;fillColor=#E7157B;strokeColor=none;dashed=0;verticalLabelPosition=bottom;verticalAlign=top;align=center;html=1;fontSize=12;fontStyle=0;aspect=fixed;pointerEvents=1;shape=mxgraph.aws4.alarm;" parent="Z8SG96sgnLIpRYUDm_wM-5" vertex="1">
          <mxGeometry x="209" y="925.73" width="59" height="59" as="geometry" />
        </mxCell>
        <mxCell id="YHfScxwqXyVmhFl68HAi-29" value="&lt;font face=&quot;Garamond&quot;&gt;Monitor Data Quality&lt;/font&gt;" style="image;aspect=fixed;html=1;points=[];align=center;fontSize=12;image=img/lib/azure2/other/Azure_Monitor_Dashboard.svg;" parent="Z8SG96sgnLIpRYUDm_wM-5" vertex="1">
          <mxGeometry x="700" y="741" width="63.48" height="59" as="geometry" />
        </mxCell>
        <mxCell id="YHfScxwqXyVmhFl68HAi-30" value="&lt;font face=&quot;Garamond&quot;&gt;Failed Jobs Threshold&lt;/font&gt;" style="sketch=0;outlineConnect=0;fontColor=#232F3E;gradientColor=none;fillColor=#E7157B;strokeColor=none;dashed=0;verticalLabelPosition=bottom;verticalAlign=top;align=center;html=1;fontSize=12;fontStyle=0;aspect=fixed;pointerEvents=1;shape=mxgraph.aws4.alarm;" parent="Z8SG96sgnLIpRYUDm_wM-5" vertex="1">
          <mxGeometry x="836.99" y="741" width="59" height="59" as="geometry" />
        </mxCell>
        <mxCell id="YHfScxwqXyVmhFl68HAi-31" value="Amazon CloudWatch" style="sketch=0;outlineConnect=0;fontColor=#232F3E;gradientColor=none;strokeColor=#ffffff;fillColor=#232F3E;dashed=0;verticalLabelPosition=middle;verticalAlign=bottom;align=center;html=1;whiteSpace=wrap;fontSize=10;fontStyle=1;spacing=3;shape=mxgraph.aws4.productIcon;prIcon=mxgraph.aws4.cloudwatch;" parent="Z8SG96sgnLIpRYUDm_wM-5" vertex="1">
          <mxGeometry x="763.48" y="831" width="80" height="110" as="geometry" />
        </mxCell>
        <mxCell id="sJ3BMuoZfA9k7Ujy6ZcF-0" value="&lt;font face=&quot;Garamond&quot;&gt;Key&lt;/font&gt;" style="points=[[0,0.5,0],[0.24,0,0],[0.5,0.28,0],[0.995,0.475,0],[0.5,0.72,0],[0.24,1,0]];verticalLabelPosition=bottom;sketch=0;html=1;verticalAlign=top;aspect=fixed;align=center;pointerEvents=1;shape=mxgraph.cisco19.key;fillColor=#005073;strokeColor=none;" parent="Z8SG96sgnLIpRYUDm_wM-5" vertex="1">
          <mxGeometry x="73.13999999999999" y="411" width="50" height="22.5" as="geometry" />
        </mxCell>
        <mxCell id="sJ3BMuoZfA9k7Ujy6ZcF-1" value="&lt;font face=&quot;Garamond&quot;&gt;AWS Key Management Service&lt;/font&gt;" style="sketch=0;outlineConnect=0;fontColor=#232F3E;gradientColor=none;strokeColor=#ffffff;fillColor=#232F3E;dashed=0;verticalLabelPosition=middle;verticalAlign=bottom;align=center;html=1;whiteSpace=wrap;fontSize=10;fontStyle=1;spacing=3;shape=mxgraph.aws4.productIcon;prIcon=mxgraph.aws4.key_management_service;" parent="Z8SG96sgnLIpRYUDm_wM-5" vertex="1">
          <mxGeometry x="66.13999999999999" y="458.5" width="64" height="107" as="geometry" />
        </mxCell>
        <mxCell id="sJ3BMuoZfA9k7Ujy6ZcF-2" value="&lt;font face=&quot;Garamond&quot;&gt;AWS Key Management Service&lt;/font&gt;" style="sketch=0;outlineConnect=0;fontColor=#232F3E;gradientColor=none;strokeColor=#ffffff;fillColor=#232F3E;dashed=0;verticalLabelPosition=middle;verticalAlign=bottom;align=center;html=1;whiteSpace=wrap;fontSize=10;fontStyle=1;spacing=3;shape=mxgraph.aws4.productIcon;prIcon=mxgraph.aws4.key_management_service;" parent="Z8SG96sgnLIpRYUDm_wM-5" vertex="1">
          <mxGeometry x="448" y="458.5" width="64" height="107" as="geometry" />
        </mxCell>
        <mxCell id="sJ3BMuoZfA9k7Ujy6ZcF-3" value="&lt;font face=&quot;Garamond&quot;&gt;Key&lt;/font&gt;" style="points=[[0,0.5,0],[0.24,0,0],[0.5,0.28,0],[0.995,0.475,0],[0.5,0.72,0],[0.24,1,0]];verticalLabelPosition=bottom;sketch=0;html=1;verticalAlign=top;aspect=fixed;align=center;pointerEvents=1;shape=mxgraph.cisco19.key;fillColor=#005073;strokeColor=none;" parent="Z8SG96sgnLIpRYUDm_wM-5" vertex="1">
          <mxGeometry x="455" y="411" width="50" height="22.5" as="geometry" />
        </mxCell>
        <mxCell id="sJ3BMuoZfA9k7Ujy6ZcF-4" value="&lt;font face=&quot;Garamond&quot;&gt;AWS Key Management Service&lt;/font&gt;" style="sketch=0;outlineConnect=0;fontColor=#232F3E;gradientColor=none;strokeColor=#ffffff;fillColor=#232F3E;dashed=0;verticalLabelPosition=middle;verticalAlign=bottom;align=center;html=1;whiteSpace=wrap;fontSize=10;fontStyle=1;spacing=3;shape=mxgraph.aws4.productIcon;prIcon=mxgraph.aws4.key_management_service;" parent="Z8SG96sgnLIpRYUDm_wM-5" vertex="1">
          <mxGeometry x="928" y="458.5" width="64" height="107" as="geometry" />
        </mxCell>
        <mxCell id="sJ3BMuoZfA9k7Ujy6ZcF-5" value="&lt;font face=&quot;Garamond&quot;&gt;Key&lt;/font&gt;" style="points=[[0,0.5,0],[0.24,0,0],[0.5,0.28,0],[0.995,0.475,0],[0.5,0.72,0],[0.24,1,0]];verticalLabelPosition=bottom;sketch=0;html=1;verticalAlign=top;aspect=fixed;align=center;pointerEvents=1;shape=mxgraph.cisco19.key;fillColor=#005073;strokeColor=none;" parent="Z8SG96sgnLIpRYUDm_wM-5" vertex="1">
          <mxGeometry x="935" y="411" width="50" height="22.5" as="geometry" />
        </mxCell>
        <mxCell id="tpu0Y6RVMb8FJNKAhbBP-1" value="&lt;font face=&quot;Garamond&quot;&gt;Rental Issue Quality Check&lt;/font&gt;" style="sketch=0;outlineConnect=0;fontColor=#232F3E;gradientColor=none;fillColor=#7AA116;strokeColor=none;dashed=0;verticalLabelPosition=bottom;verticalAlign=top;align=center;html=1;fontSize=12;fontStyle=0;aspect=fixed;pointerEvents=1;shape=mxgraph.aws4.iot_analytics_pipeline;" vertex="1" parent="Z8SG96sgnLIpRYUDm_wM-5">
          <mxGeometry x="259.99" y="322" width="78" height="42" as="geometry" />
        </mxCell>
        <mxCell id="tpu0Y6RVMb8FJNKAhbBP-2" value="&lt;font face=&quot;Garamond&quot;&gt;AWS Glue&lt;/font&gt;" style="sketch=0;outlineConnect=0;fontColor=#232F3E;gradientColor=none;strokeColor=#ffffff;fillColor=#232F3E;dashed=0;verticalLabelPosition=middle;verticalAlign=bottom;align=center;html=1;whiteSpace=wrap;fontSize=10;fontStyle=1;spacing=3;shape=mxgraph.aws4.productIcon;prIcon=mxgraph.aws4.glue;" vertex="1" parent="Z8SG96sgnLIpRYUDm_wM-5">
          <mxGeometry x="269.99" y="411" width="58" height="80" as="geometry" />
        </mxCell>
        <mxCell id="Z8SG96sgnLIpRYUDm_wM-44" value="&lt;font face=&quot;Garamond&quot; style=&quot;font-size: 10px;&quot;&gt;Amazon S3&lt;/font&gt;" style="sketch=0;outlineConnect=0;fontColor=#232F3E;gradientColor=none;strokeColor=#ffffff;fillColor=#232F3E;dashed=0;verticalLabelPosition=middle;verticalAlign=bottom;align=center;html=1;whiteSpace=wrap;fontSize=10;fontStyle=1;spacing=3;shape=mxgraph.aws4.productIcon;prIcon=mxgraph.aws4.s3;" parent="Z8SG96sgnLIpRYUDm_wM-5" vertex="1">
          <mxGeometry x="450" y="331" width="60" height="80" as="geometry" />
        </mxCell>
        <mxCell id="Z8SG96sgnLIpRYUDm_wM-45" value="&lt;span style=&quot;background-color: rgb(255, 255, 255);&quot;&gt;&lt;font face=&quot;Garamond&quot; style=&quot;font-size: 10px;&quot;&gt;/rental-issue/User/&lt;/font&gt;&lt;/span&gt;&lt;div&gt;&lt;span style=&quot;background-color: rgb(255, 255, 255);&quot;&gt;&lt;font face=&quot;Garamond&quot; style=&quot;font-size: 10px;&quot;&gt;&amp;nbsp; &amp;nbsp; /rental-issue/System/&lt;/font&gt;&lt;/span&gt;&lt;/div&gt;&lt;div&gt;&lt;span style=&quot;background-color: rgb(255, 255, 255);&quot;&gt;&lt;span style=&quot;font-family: Garamond; font-size: 10px;&quot;&gt;/rental-issue/Quality_Check/Passed&lt;/span&gt;&lt;font face=&quot;Garamond&quot; style=&quot;font-size: 10px;&quot;&gt;&lt;br&gt;&lt;/font&gt;&lt;/span&gt;&lt;/div&gt;&lt;div&gt;&lt;span style=&quot;background-color: rgb(255, 255, 255);&quot;&gt;&lt;span style=&quot;font-family: Garamond; font-size: 10px;&quot;&gt;/rental-issue/Quality_Check/Failed&lt;/span&gt;&lt;span style=&quot;font-family: Garamond; font-size: 10px;&quot;&gt;&lt;br&gt;&lt;/span&gt;&lt;/span&gt;&lt;/div&gt;" style="text;html=1;align=center;verticalAlign=middle;whiteSpace=wrap;rounded=0;" parent="Z8SG96sgnLIpRYUDm_wM-5" vertex="1">
          <mxGeometry x="400" y="281" width="160" height="30" as="geometry" />
        </mxCell>
        <mxCell id="Z8SG96sgnLIpRYUDm_wM-68" value="&lt;font face=&quot;Garamond&quot;&gt;AWS Glue&lt;/font&gt;" style="sketch=0;outlineConnect=0;fontColor=#232F3E;gradientColor=none;strokeColor=#ffffff;fillColor=#232F3E;dashed=0;verticalLabelPosition=middle;verticalAlign=bottom;align=center;html=1;whiteSpace=wrap;fontSize=10;fontStyle=1;spacing=3;shape=mxgraph.aws4.productIcon;prIcon=mxgraph.aws4.glue;" parent="Z8SG96sgnLIpRYUDm_wM-5" vertex="1">
          <mxGeometry x="759.63" y="391" width="58" height="80" as="geometry" />
        </mxCell>
        <mxCell id="tpu0Y6RVMb8FJNKAhbBP-5" value="" style="outlineConnect=0;dashed=0;verticalLabelPosition=bottom;verticalAlign=top;align=center;html=1;shape=mxgraph.aws3.mysql_db_instance_2;fillColor=#2E73B8;gradientColor=none;" vertex="1" parent="Z8SG96sgnLIpRYUDm_wM-5">
          <mxGeometry x="759.6300000000001" y="482" width="60" height="63" as="geometry" />
        </mxCell>
        <mxCell id="tpu0Y6RVMb8FJNKAhbBP-6" value="" style="outlineConnect=0;dashed=0;verticalLabelPosition=bottom;verticalAlign=top;align=center;html=1;shape=mxgraph.aws3.mysql_db_instance_2;fillColor=#2E73B8;gradientColor=none;" vertex="1" parent="Z8SG96sgnLIpRYUDm_wM-5">
          <mxGeometry x="759.6300000000001" y="551" width="60" height="63" as="geometry" />
        </mxCell>
        <mxCell id="3nzJciXmNX4yzUsSqaPT-1" value="" style="html=1;strokeWidth=1;shadow=0;dashed=0;shape=mxgraph.ios7.misc.notification;fillColor=#FF3B2F;strokeColor=none;buttonText=;strokeColor2=#222222;fontColor=#222222;fontSize=8;verticalLabelPosition=bottom;verticalAlign=top;align=center;sketch=0;" vertex="1" parent="Z8SG96sgnLIpRYUDm_wM-5">
          <mxGeometry x="370" y="831" width="70" height="70" as="geometry" />
        </mxCell>
        <mxCell id="3nzJciXmNX4yzUsSqaPT-2" value="Amazon SNS" style="sketch=0;outlineConnect=0;fontColor=#232F3E;gradientColor=none;strokeColor=#ffffff;fillColor=#232F3E;dashed=0;verticalLabelPosition=middle;verticalAlign=bottom;align=center;html=1;whiteSpace=wrap;fontSize=10;fontStyle=1;spacing=3;shape=mxgraph.aws4.productIcon;prIcon=mxgraph.aws4.sns;" vertex="1" parent="Z8SG96sgnLIpRYUDm_wM-5">
          <mxGeometry x="365" y="925.73" width="80" height="100" as="geometry" />
        </mxCell>
        <mxCell id="Z8SG96sgnLIpRYUDm_wM-101" value="&lt;font face=&quot;Garamond&quot;&gt;Rental-Issue-list&amp;nbsp;&lt;/font&gt;" style="shape=table;startSize=30;container=1;collapsible=1;childLayout=tableLayout;fixedRows=1;rowLines=0;fontStyle=1;align=center;resizeLast=1;html=1;" parent="Z8SG96sgnLIpRYUDm_wM-1" vertex="1">
          <mxGeometry x="1660" y="338" width="180" height="120" as="geometry">
            <mxRectangle x="1680" y="321" width="130" height="30" as="alternateBounds" />
          </mxGeometry>
        </mxCell>
        <mxCell id="Z8SG96sgnLIpRYUDm_wM-102" value="" style="shape=tableRow;horizontal=0;startSize=0;swimlaneHead=0;swimlaneBody=0;fillColor=none;collapsible=0;dropTarget=0;points=[[0,0.5],[1,0.5]];portConstraint=eastwest;top=0;left=0;right=0;bottom=1;" parent="Z8SG96sgnLIpRYUDm_wM-101" vertex="1">
          <mxGeometry y="30" width="180" height="30" as="geometry" />
        </mxCell>
        <mxCell id="Z8SG96sgnLIpRYUDm_wM-103" value="&lt;font face=&quot;Garamond&quot;&gt;PK&lt;/font&gt;" style="shape=partialRectangle;connectable=0;fillColor=none;top=0;left=0;bottom=0;right=0;fontStyle=1;overflow=hidden;whiteSpace=wrap;html=1;" parent="Z8SG96sgnLIpRYUDm_wM-102" vertex="1">
          <mxGeometry width="30" height="30" as="geometry">
            <mxRectangle width="30" height="30" as="alternateBounds" />
          </mxGeometry>
        </mxCell>
        <mxCell id="Z8SG96sgnLIpRYUDm_wM-104" value="&lt;span style=&quot;font-family: Garamond;&quot;&gt;BUSINESSOPERATOR&lt;/span&gt;" style="shape=partialRectangle;connectable=0;fillColor=none;top=0;left=0;bottom=0;right=0;align=left;spacingLeft=6;fontStyle=5;overflow=hidden;whiteSpace=wrap;html=1;" parent="Z8SG96sgnLIpRYUDm_wM-102" vertex="1">
          <mxGeometry x="30" width="150" height="30" as="geometry">
            <mxRectangle width="150" height="30" as="alternateBounds" />
          </mxGeometry>
        </mxCell>
        <mxCell id="Z8SG96sgnLIpRYUDm_wM-105" value="" style="shape=tableRow;horizontal=0;startSize=0;swimlaneHead=0;swimlaneBody=0;fillColor=none;collapsible=0;dropTarget=0;points=[[0,0.5],[1,0.5]];portConstraint=eastwest;top=0;left=0;right=0;bottom=0;" parent="Z8SG96sgnLIpRYUDm_wM-101" vertex="1">
          <mxGeometry y="60" width="180" height="30" as="geometry" />
        </mxCell>
        <mxCell id="Z8SG96sgnLIpRYUDm_wM-106" value="" style="shape=partialRectangle;connectable=0;fillColor=none;top=0;left=0;bottom=0;right=0;editable=1;overflow=hidden;whiteSpace=wrap;html=1;" parent="Z8SG96sgnLIpRYUDm_wM-105" vertex="1">
          <mxGeometry width="30" height="30" as="geometry">
            <mxRectangle width="30" height="30" as="alternateBounds" />
          </mxGeometry>
        </mxCell>
        <mxCell id="Z8SG96sgnLIpRYUDm_wM-107" value="&lt;span style=&quot;font-family: Garamond;&quot;&gt;DetailURL&lt;/span&gt;" style="shape=partialRectangle;connectable=0;fillColor=none;top=0;left=0;bottom=0;right=0;align=left;spacingLeft=6;overflow=hidden;whiteSpace=wrap;html=1;" parent="Z8SG96sgnLIpRYUDm_wM-105" vertex="1">
          <mxGeometry x="30" width="150" height="30" as="geometry">
            <mxRectangle width="150" height="30" as="alternateBounds" />
          </mxGeometry>
        </mxCell>
        <mxCell id="Z8SG96sgnLIpRYUDm_wM-108" value="" style="shape=tableRow;horizontal=0;startSize=0;swimlaneHead=0;swimlaneBody=0;fillColor=none;collapsible=0;dropTarget=0;points=[[0,0.5],[1,0.5]];portConstraint=eastwest;top=0;left=0;right=0;bottom=0;" parent="Z8SG96sgnLIpRYUDm_wM-101" vertex="1">
          <mxGeometry y="90" width="180" height="30" as="geometry" />
        </mxCell>
        <mxCell id="Z8SG96sgnLIpRYUDm_wM-109" value="" style="shape=partialRectangle;connectable=0;fillColor=none;top=0;left=0;bottom=0;right=0;editable=1;overflow=hidden;whiteSpace=wrap;html=1;" parent="Z8SG96sgnLIpRYUDm_wM-108" vertex="1">
          <mxGeometry width="30" height="30" as="geometry">
            <mxRectangle width="30" height="30" as="alternateBounds" />
          </mxGeometry>
        </mxCell>
        <mxCell id="Z8SG96sgnLIpRYUDm_wM-110" value="&lt;font face=&quot;Garamond&quot;&gt;StreetNumber&lt;/font&gt;" style="shape=partialRectangle;connectable=0;fillColor=none;top=0;left=0;bottom=0;right=0;align=left;spacingLeft=6;overflow=hidden;whiteSpace=wrap;html=1;" parent="Z8SG96sgnLIpRYUDm_wM-108" vertex="1">
          <mxGeometry x="30" width="150" height="30" as="geometry">
            <mxRectangle width="150" height="30" as="alternateBounds" />
          </mxGeometry>
        </mxCell>
        <mxCell id="Z8SG96sgnLIpRYUDm_wM-133" value="" style="shape=image;html=1;verticalAlign=top;verticalLabelPosition=bottom;labelBackgroundColor=#ffffff;imageAspect=0;aspect=fixed;image=https://cdn3.iconfinder.com/data/icons/dompicon-glyph-file-format-2/256/file-csv-format-type-128.png" parent="Z8SG96sgnLIpRYUDm_wM-1" vertex="1">
          <mxGeometry x="1720" y="240" width="59" height="59" as="geometry" />
        </mxCell>
        <mxCell id="Z8SG96sgnLIpRYUDm_wM-95" style="edgeStyle=orthogonalEdgeStyle;rounded=0;orthogonalLoop=1;jettySize=auto;html=1;entryX=0;entryY=0.7;entryDx=0;entryDy=0;endArrow=none;endFill=0;entryPerimeter=0;" parent="Z8SG96sgnLIpRYUDm_wM-1" source="Z8SG96sgnLIpRYUDm_wM-96" target="Z8SG96sgnLIpRYUDm_wM-100" edge="1">
          <mxGeometry relative="1" as="geometry" />
        </mxCell>
        <mxCell id="Z8SG96sgnLIpRYUDm_wM-100" value="&lt;font face=&quot;Garamond&quot;&gt;Internet&lt;/font&gt;" style="outlineConnect=0;dashed=0;verticalLabelPosition=bottom;verticalAlign=top;align=center;html=1;shape=mxgraph.aws3.internet_2;fillColor=#66FFFF;gradientColor=none;" parent="Z8SG96sgnLIpRYUDm_wM-1" vertex="1">
          <mxGeometry x="337.05" y="506" width="64.06" height="44" as="geometry" />
        </mxCell>
        <mxCell id="zjTeK_ae6c7EuptJbxoT-3" value="" style="edgeStyle=orthogonalEdgeStyle;rounded=0;orthogonalLoop=1;jettySize=auto;html=1;entryX=0;entryY=0.5;entryDx=0;entryDy=0;endArrow=none;endFill=0;" parent="Z8SG96sgnLIpRYUDm_wM-1" source="Z8SG96sgnLIpRYUDm_wM-94" target="Z8SG96sgnLIpRYUDm_wM-99" edge="1">
          <mxGeometry relative="1" as="geometry">
            <mxPoint x="240" y="357" as="sourcePoint" />
            <mxPoint x="550" y="459.5" as="targetPoint" />
          </mxGeometry>
        </mxCell>
        <mxCell id="zjTeK_ae6c7EuptJbxoT-7" style="edgeStyle=orthogonalEdgeStyle;rounded=0;orthogonalLoop=1;jettySize=auto;html=1;" parent="Z8SG96sgnLIpRYUDm_wM-1" source="Z8SG96sgnLIpRYUDm_wM-99" target="Z8SG96sgnLIpRYUDm_wM-35" edge="1">
          <mxGeometry relative="1" as="geometry" />
        </mxCell>
        <mxCell id="zjTeK_ae6c7EuptJbxoT-8" value="&lt;font face=&quot;Garamond&quot;&gt;Data Ingestion&lt;/font&gt;" style="edgeLabel;html=1;align=center;verticalAlign=middle;resizable=0;points=[];" parent="zjTeK_ae6c7EuptJbxoT-7" vertex="1" connectable="0">
          <mxGeometry x="-0.035" y="-1" relative="1" as="geometry">
            <mxPoint as="offset" />
          </mxGeometry>
        </mxCell>
        <mxCell id="Z8SG96sgnLIpRYUDm_wM-99" value="&lt;font face=&quot;Garamond&quot;&gt;Internet&lt;/font&gt;" style="outlineConnect=0;dashed=0;verticalLabelPosition=bottom;verticalAlign=top;align=center;html=1;shape=mxgraph.aws3.internet_2;fillColor=#66FFFF;gradientColor=none;" parent="Z8SG96sgnLIpRYUDm_wM-1" vertex="1">
          <mxGeometry x="344.33" y="274" width="49.5" height="34" as="geometry" />
        </mxCell>
        <mxCell id="zjTeK_ae6c7EuptJbxoT-21" value="" style="group" parent="Z8SG96sgnLIpRYUDm_wM-1" vertex="1" connectable="0">
          <mxGeometry x="220.00000000000003" y="480" width="61.110000000000014" height="99.76999999999998" as="geometry" />
        </mxCell>
        <mxCell id="Z8SG96sgnLIpRYUDm_wM-96" value="&lt;font face=&quot;Garamond&quot;&gt;COV Data Team&lt;/font&gt;" style="sketch=0;pointerEvents=1;shadow=0;dashed=0;html=1;strokeColor=none;labelPosition=center;verticalLabelPosition=bottom;verticalAlign=top;align=center;fillColor=#000000;shape=mxgraph.mscae.intune.user_group" parent="zjTeK_ae6c7EuptJbxoT-21" vertex="1">
          <mxGeometry y="62.76999999999998" width="50" height="37" as="geometry" />
        </mxCell>
        <mxCell id="LwU33b2yjaEpWgWFzzA_-24" value="" style="sketch=0;aspect=fixed;pointerEvents=1;shadow=0;dashed=0;html=1;strokeColor=none;labelPosition=center;verticalLabelPosition=bottom;verticalAlign=top;align=center;fillColor=#000000;shape=mxgraph.azure.computer" parent="zjTeK_ae6c7EuptJbxoT-21" vertex="1">
          <mxGeometry y="4" width="61.11" height="55" as="geometry" />
        </mxCell>
        <mxCell id="zjTeK_ae6c7EuptJbxoT-22" value="" style="group" parent="Z8SG96sgnLIpRYUDm_wM-1" vertex="1" connectable="0">
          <mxGeometry x="209.99999999999997" y="210" width="61.109999999999985" height="105" as="geometry" />
        </mxCell>
        <mxCell id="Z8SG96sgnLIpRYUDm_wM-94" value="&lt;font face=&quot;Garamond&quot;&gt;COV Operation Team&lt;/font&gt;&lt;div&gt;&lt;font face=&quot;Garamond&quot;&gt;(Website)&lt;/font&gt;&lt;/div&gt;" style="sketch=0;pointerEvents=1;shadow=0;dashed=0;html=1;strokeColor=none;labelPosition=center;verticalLabelPosition=bottom;verticalAlign=top;align=center;fillColor=#000000;shape=mxgraph.mscae.intune.user_group" parent="zjTeK_ae6c7EuptJbxoT-22" vertex="1">
          <mxGeometry x="2.842170943040401e-14" y="68" width="50" height="37" as="geometry" />
        </mxCell>
        <mxCell id="LwU33b2yjaEpWgWFzzA_-25" value="" style="sketch=0;aspect=fixed;pointerEvents=1;shadow=0;dashed=0;html=1;strokeColor=none;labelPosition=center;verticalLabelPosition=bottom;verticalAlign=top;align=center;fillColor=#000000;shape=mxgraph.azure.computer" parent="zjTeK_ae6c7EuptJbxoT-22" vertex="1">
          <mxGeometry width="61.11" height="55" as="geometry" />
        </mxCell>
        <mxCell id="zjTeK_ae6c7EuptJbxoT-24" value="&lt;font face=&quot;Garamond&quot; style=&quot;font-size: 14px;&quot;&gt;1&lt;/font&gt;" style="text;html=1;align=center;verticalAlign=middle;resizable=0;points=[];autosize=1;strokeColor=none;fillColor=none;" parent="Z8SG96sgnLIpRYUDm_wM-1" vertex="1">
          <mxGeometry x="1765" y="558" width="30" height="30" as="geometry" />
        </mxCell>
        <mxCell id="lHhe_CSioxbiiWHbaxMm-0" value="2" style="text;html=1;align=center;verticalAlign=middle;resizable=0;points=[];autosize=1;strokeColor=none;fillColor=none;" parent="Z8SG96sgnLIpRYUDm_wM-1" vertex="1">
          <mxGeometry x="1775" y="748" width="30" height="30" as="geometry" />
        </mxCell>
        <mxCell id="lHhe_CSioxbiiWHbaxMm-2" value="&lt;font face=&quot;Garamond&quot;&gt;10 + 10&lt;/font&gt;" style="text;html=1;align=center;verticalAlign=middle;resizable=0;points=[];autosize=1;strokeColor=none;fillColor=none;" parent="Z8SG96sgnLIpRYUDm_wM-1" vertex="1">
          <mxGeometry x="2140" y="748" width="60" height="30" as="geometry" />
        </mxCell>
      </root>
    </mxGraphModel>
  </diagram>
</mxfile>
